<?xml version="1.0" encoding="iso-8859-1"?>
<svg height="800px" width="800px" version="1.1" id="Layer_1" xmlns="http://www.w3.org/2000/svg" xmlns:xlink="http://www.w3.org/1999/xlink" 
	 viewBox="0 0 512 512" xml:space="preserve">
<g>
	<path style="fill:#DEB714;" d="M241.067,376.147h-83.865c-36.546,0-66.279-29.732-66.279-66.279v-70.862h216.424v70.862
		C307.347,346.414,277.613,376.147,241.067,376.147z M125.123,273.205v36.662c0,17.689,14.391,32.079,32.08,32.079h83.865
		c17.688,0,32.08-14.39,32.08-32.08v-36.662L125.123,273.205L125.123,273.205z"/>
	<path style="fill:#DEB714;" d="M512,150.094c0-7.865-6.376-14.241-14.241-14.241h-0.024c-4.048,0-7.866,1.883-10.334,5.092
		c-15.836,20.585-33.657,35.489-52.448,48.572c-27.529,19.166-59.975,29.288-93.517,29.288H17.1v54.323h324.335
		c33.413,0,66.096,10.197,93.517,29.289c18.663,12.994,36.369,27.783,52.123,48.151c2.685,3.47,6.839,5.514,11.227,5.514h0.027
		c7.549,0,13.669-6.12,13.669-13.669v-192.32H512z"/>
	<path style="fill:#DEB714;" d="M267.534,262.232c-9.444,0-17.1-7.656-17.1-17.1v-77.899c0-9.444,7.656-17.1,17.1-17.1
		s17.1,7.656,17.1,17.1v77.899C284.634,254.576,276.978,262.232,267.534,262.232z"/>
</g>
<path style="fill:#A66300;" d="M285.015,184.333h-34.96c-9.444,0-17.1-7.656-17.1-17.1c0-9.444,7.656-17.1,17.1-17.1h34.96
	c9.444,0,17.1,7.656,17.1,17.1C302.115,176.677,294.459,184.333,285.015,184.333z"/>
<path style="fill:#DEB714;" d="M199.135,262.232c-9.444,0-17.1-7.656-17.1-17.1v-57.899c0-9.444,7.656-17.1,17.1-17.1
	c9.444,0,17.1,7.656,17.1,17.1v57.899C216.235,254.576,208.578,262.232,199.135,262.232z"/>
<path style="fill:#A66300;" d="M216.615,184.333h-34.96c-9.444,0-17.1-7.656-17.1-17.1c0-9.444,7.656-17.1,17.1-17.1h34.96
	c9.444,0,17.1,7.656,17.1,17.1C233.715,176.677,226.059,184.333,216.615,184.333z"/>
<path style="fill:#DEB714;" d="M335.934,262.232c-9.444,0-17.1-7.656-17.1-17.1v-57.899c0-9.444,7.656-17.1,17.1-17.1
	c9.444,0,17.1,7.656,17.1,17.1v57.899C353.034,254.576,345.378,262.232,335.934,262.232z"/>
<path style="fill:#A66300;" d="M353.415,184.333h-34.96c-9.444,0-17.1-7.656-17.1-17.1c0-9.444,7.656-17.1,17.1-17.1h34.96
	c9.444,0,17.1,7.656,17.1,17.1C370.515,176.677,362.859,184.333,353.415,184.333z"/>
<path style="fill:#FACE17;" d="M512,245.968v-95.874c0-7.865-6.376-14.241-14.241-14.241h-0.024c-4.048,0-7.866,1.883-10.334,5.092
	c-15.836,20.585-33.657,35.489-52.448,48.572c-27.529,19.166-59.975,29.288-93.517,29.288H17.1v27.162H512V245.968z"/>
<g>
	<path style="fill:#FBDB4A;" d="M497.759,135.853h-0.024c-4.048,0-7.866,1.883-10.334,5.092c-3.848,5.001-7.815,9.663-11.882,14.048
		v181.953c3.952,4.262,7.811,8.78,11.556,13.622c2.685,3.47,6.839,5.514,11.227,5.514h0.027c7.549,0,13.669-6.12,13.669-13.669
		v-192.32C512,142.229,505.624,135.853,497.759,135.853z"/>
	<path style="fill:#FBDB4A;" d="M17.1,290.23c-9.444,0-17.1-7.656-17.1-17.1v-54.323c0-9.444,7.656-17.1,17.1-17.1
		s17.1,7.656,17.1,17.1v54.323C34.2,282.573,26.544,290.23,17.1,290.23z"/>
</g>
</svg>
